<svg xmlns="http://www.w3.org/2000/svg" width="64" height="64" viewBox="0 0 24 24" fill="none">
  <path d="M23.642 5.43a.364.364 0 01.014.1v5.149c0 .135-.073.26-.189.326l-4.323 2.49v4.934a.378.378 0 01-.188.326L9.93 23.949a.316.316 0 01-.066.017c-.008.002-.016.002-.024.002-.008 0-.017 0-.024-.002a.087.087 0 01-.066-.017L.724 18.755a.378.378 0 01-.188-.326V4.426c0-.003 0-.007.002-.01a.093.093 0 01.006-.017c.003-.012.009-.023.015-.034a.298.298 0 01.035-.04c.004-.004.009-.007.014-.01a.207.207 0 01.04-.027L9.676.041a.378.378 0 01.378 0l9.028 4.237c.015.007.028.015.04.027.005.003.01.006.014.01a.298.298 0 01.035.04c.006.011.012.022.015.034a.093.093 0 01.006.017c.002.003.002.007.002.01v.001zM1.243 5.532v12.794l8.199 4.72V10.274l-8.199-4.742zm9.199 17.514l7.699-4.434V5.639l-7.699 4.635v12.772zM9.676.755L1.989 4.635l7.687 4.635 7.688-4.635L9.676.755z" fill="#FF2D20"/>
</svg>
